HIERARCHY
ROOT Hips
{
	OFFSET 0.000000 0.000000 0.000000
	CHANNELS 6 Xposition Yposition Zposition Xrotation Yrotation Zrotation
	JOINT LeftUpLeg_virtual
	{
		OFFSET 0.000000 0.000000 0.000000
		CHANNELS 3 Xrotation Yrotation Zrotation
		JOINT LeftUpLeg
		{
			OFFSET 15.427100 -6.655098 0.678600
			CHANNELS 3 Xrotation Yrotation Zrotation
			JOINT LeftLeg
			{
				OFFSET 4.081073 -39.591068 13.024000
				CHANNELS 3 Xrotation Yrotation Zrotation
				JOINT LeftFoot
				{
					OFFSET -4.081074 -37.707932 -15.979700
					CHANNELS 3 Xrotation Yrotation Zrotation
					JOINT LeftToeBase
					{
						OFFSET 5.346399 -15.068900 20.645000
						CHANNELS 3 Xrotation Yrotation Zrotation
						JOINT LeftToe_End
						{
							OFFSET 2.754700 0.931300 11.300900
							CHANNELS 3 Xrotation Yrotation Zrotation
							End Site
							{
								OFFSET 0 0 0
							}
						}
					}
				}
			}
		}
	}
	JOINT RightUpLeg_virtual
	{
		OFFSET 0.000000 0.000000 0.000000
		CHANNELS 3 Xrotation Yrotation Zrotation
		JOINT RightUpLeg
		{
			OFFSET -15.569500 -6.655098 0.678600
			CHANNELS 3 Xrotation Yrotation Zrotation
			JOINT RightLeg
			{
				OFFSET -4.081825 -39.591045 13.023800
				CHANNELS 3 Xrotation Yrotation Zrotation
				JOINT RightFoot
				{
					OFFSET 4.081824 -37.707954 -15.979600
					CHANNELS 3 Xrotation Yrotation Zrotation
					JOINT RightToeBase
					{
						OFFSET -5.346400 -15.068900 20.645000
						CHANNELS 3 Xrotation Yrotation Zrotation
						JOINT RightToe_End
						{
							OFFSET -2.754700 0.931300 11.300900
							CHANNELS 3 Xrotation Yrotation Zrotation
							End Site
							{
								OFFSET 0 0 0
							}
						}
					}
				}
			}
		}
	}
	JOINT Spine_virtual
	{
		OFFSET 0.000000 0.000000 0.000000
		CHANNELS 3 Xrotation Yrotation Zrotation
		JOINT Spine
		{
			OFFSET -0.279200 12.230698 -2.892100
			CHANNELS 3 Xrotation Yrotation Zrotation
			JOINT Spine1
			{
				OFFSET -0.232667 10.192268 -1.242267
				CHANNELS 3 Xrotation Yrotation Zrotation
				JOINT Spine1_split
				{
					OFFSET -0.232667 10.192268 -1.242267
					CHANNELS 3 Xrotation Yrotation Zrotation
					JOINT Spine2
					{
						OFFSET -0.232667 10.192268 -1.242267
						CHANNELS 3 Xrotation Yrotation Zrotation
						JOINT Neck_virtual
						{
							OFFSET 0.000000 0.000000 0.000000
							CHANNELS 3 Xrotation Yrotation Zrotation
							JOINT Neck
							{
								OFFSET -0.418800 17.814194 8.416900
								CHANNELS 3 Xrotation Yrotation Zrotation
								JOINT Head
								{
									OFFSET 0.000000 7.031097 3.806800
									CHANNELS 3 Xrotation Yrotation Zrotation
									JOINT HeadTop_End
									{
										OFFSET 0.000000 24.646606 12.978600
										CHANNELS 3 Xrotation Yrotation Zrotation
										End Site
										{
											OFFSET 0 0 0
										}
									}
								}
							}
						}
						JOINT LeftShoulder_virtual
						{
							OFFSET 0.000000 0.000000 0.000000
							CHANNELS 3 Xrotation Yrotation Zrotation
							JOINT LeftShoulder
							{
								OFFSET 8.476499 7.247704 -3.868750
								CHANNELS 3 Xrotation Yrotation Zrotation
								JOINT LeftShoulder_split
								{
									OFFSET 8.476499 7.247704 -3.868750
									CHANNELS 3 Xrotation Yrotation Zrotation
									JOINT LeftArm
									{
										OFFSET 9.308998 -2.777710 0.208600
										CHANNELS 3 Xrotation Yrotation Zrotation
										JOINT LeftForeArm
										{
											OFFSET 29.972298 0.000000 0.000000
											CHANNELS 3 Xrotation Yrotation Zrotation
											JOINT LeftHand
											{
												OFFSET 26.026505 0.000000 0.000000
												CHANNELS 3 Xrotation Yrotation Zrotation
												End Site
												{
													OFFSET 0 0 0
												}
											}
										}
									}
								}
							}
						}
						JOINT RightShoulder_virtual
						{
							OFFSET 0.000000 0.000000 0.000000
							CHANNELS 3 Xrotation Yrotation Zrotation
							JOINT RightShoulder
							{
								OFFSET -7.570500 7.247704 -3.868750
								CHANNELS 3 Xrotation Yrotation Zrotation
								JOINT RightShoulder_split
								{
									OFFSET -7.570500 7.247704 -3.868750
									CHANNELS 3 Xrotation Yrotation Zrotation
									JOINT RightArm
									{
										OFFSET -9.308998 -2.777710 0.208500
										CHANNELS 3 Xrotation Yrotation Zrotation
										JOINT RightForeArm
										{
											OFFSET -29.972300 0.000000 0.000000
											CHANNELS 3 Xrotation Yrotation Zrotation
											JOINT RightHand
											{
												OFFSET -26.026505 0.000000 0.000000
												CHANNELS 3 Xrotation Yrotation Zrotation
												End Site
												{
													OFFSET 0 0 0
												}
											}
										}
									}
								}
							}
						}
					}
				}
			}
		}
	}
}
MOTION
Frames: 4
Frame Time: 0.03333333
2.620917 223.584717 -20.561340 0.000000 0.000000 0.000000 3.162525 -12.430128 2.228008 -71.682726 18.487876 24.482779 82.347185 -1.340422 5.365741 -14.125478 5.223248 -14.769167 1.574221 -3.128945 10.381997 0.000000 0.000000 0.000000 6.354954 -16.262358 1.587265 -88.538567 12.279191 -11.631482 101.792297 -1.053371 -0.147494 0.684950 -14.189468 27.243622 2.975864 5.167707 5.183877 0.000000 0.000000 0.000000 7.307633 -17.525635 1.378282 5.495629 -1.408818 1.088209 10.773753 -1.349694 -0.400476 1.108295 -1.286436 2.034227 0.000000 0.000000 0.000000 13.175760 -1.379510 -0.173716 -22.002831 0.747284 -1.759411 0.731253 -4.516746 1.655604 0.000000 0.000000 0.000000 12.837750 -1.427944 -0.858186 1.003640 -14.084647 27.613997 0.561109 8.810317 -7.743780 -59.213806 -21.450667 -11.482447 29.882655 -70.807000 54.057413 0.000000 0.000000 0.000000 12.565572 -0.882896 -0.449746 2.720031 9.603716 -7.218997 8.190625 9.287205 0.586268 -75.523355 36.087188 23.165476 -13.367377 76.326565 -26.932740 0.000000 0.000000 0.000000 
3.011969 224.273285 -21.384796 0.000000 0.000000 0.000000 1.474045 -13.391697 2.741032 -76.083704 14.189414 23.329443 83.377813 -3.213851 1.845886 -14.174369 7.412911 -13.226088 3.924604 -4.045249 9.667521 0.000000 0.000000 0.000000 5.007171 -16.373628 2.405249 -91.858743 8.791510 -13.520470 96.583478 1.261838 -0.266663 3.736297 -12.306753 27.880815 0.470957 4.177834 2.995872 0.000000 0.000000 0.000000 6.229377 -18.229930 1.380665 6.312406 -1.394334 1.129815 13.885920 -0.995478 -0.462689 1.352590 -0.983729 2.181512 0.000000 0.000000 0.000000 16.216339 -0.882826 -0.377379 -23.575702 1.999620 -1.572159 3.280831 -5.434374 3.479070 0.000000 0.000000 0.000000 15.793866 -1.006151 -1.227727 2.544163 -16.766921 30.369203 -0.011958 5.310516 -6.857682 -59.235246 -17.264143 -9.138459 16.042161 -66.045839 45.597878 0.000000 0.000000 0.000000 15.571341 -0.351428 -0.657569 3.483037 10.347402 -9.169773 9.338099 9.501248 -0.747153 -83.834172 36.800684 26.862147 -32.153973 76.665663 -9.870356 0.000000 0.000000 0.000000 
3.066384 224.928864 -21.326027 0.000000 0.000000 0.000000 0.154439 -13.142523 3.326801 -78.121081 9.992670 20.903027 77.713544 -5.217107 -0.260504 -12.969352 8.868827 -11.131922 5.544587 -4.781174 7.994058 0.000000 0.000000 0.000000 4.097994 -15.699745 3.254080 -92.227682 3.964969 -14.924972 86.283014 2.958849 -0.172892 6.863453 -9.104873 26.571702 -2.042533 3.913096 1.411406 0.000000 0.000000 0.000000 5.218185 -18.209124 1.400647 6.437606 -1.019392 1.333002 16.796381 -0.534040 -0.616188 1.410463 -1.293328 2.169995 0.000000 0.000000 0.000000 19.033666 -0.237805 -0.647146 -24.001785 3.194835 -1.658377 6.630947 -6.488393 5.401300 0.000000 0.000000 0.000000 18.638721 -0.557872 -1.516273 3.838047 -18.496461 32.153378 -1.183558 1.560702 -5.212276 -62.711997 -15.099535 -7.752514 6.460010 -60.068631 41.044543 0.000000 0.000000 0.000000 18.272231 0.247312 -0.832567 4.613861 11.815576 -11.563507 10.366753 9.687571 -1.950896 -89.946693 38.348220 27.674047 -39.763025 71.658916 -3.522772 0.000000 0.000000 0.000000 
2.746572 225.188232 -20.568123 0.000000 0.000000 0.000000 -1.068762 -11.763348 3.845208 -77.943742 6.954175 17.788785 66.350780 -7.196912 -1.356884 -11.083161 9.633821 -8.461173 5.544330 -5.369298 5.654081 0.000000 0.000000 0.000000 2.959886 -15.398293 3.889711 -90.468137 -1.542591 -15.804841 71.969300 3.611549 0.465263 10.012526 -5.879505 22.927448 -4.359454 4.266215 0.843435 0.000000 0.000000 0.000000 4.122397 -17.681499 1.490613 6.185636 -0.516441 1.610576 19.273973 -0.088610 -0.782684 0.965239 -1.165973 1.686717 0.000000 0.000000 0.000000 21.292290 0.416345 -0.902971 -23.189730 4.391612 -2.077469 10.326637 -7.490044 7.123536 0.000000 0.000000 0.000000 21.099547 -0.127933 -1.685814 4.639466 -18.967068 33.132490 -2.113424 -1.773855 -3.246334 -67.944666 -15.096876 -6.456002 -1.641659 -52.888791 37.516354 0.000000 0.000000 0.000000 20.399632 0.738718 -0.908632 6.219388 13.468579 -14.776698 10.723606 9.267625 -2.677981 -91.573931 40.564360 24.417363 -39.337494 63.214555 -4.847644 0.000000 0.000000 0.000000 
